<svg width="61" height="44" viewBox="0 0 61 44" fill="none" xmlns="http://www.w3.org/2000/svg">
<path d="M28 12.2667H41M41 12.2667L36.7631 17M41 12.2667L38.8816 10.1333L36.7631 8" stroke="#49260C" stroke-width="1.71"/>
<rect x="17.855" y="2.855" width="26.29" height="20.29" rx="4.145" stroke="#49260C" stroke-width="1.71"/>
<path d="M11.6214 40.144C10.8694 40.144 10.2494 39.96 9.76141 39.592C9.27341 39.224 8.99341 38.736 8.92141 38.128H10.2054C10.2694 38.4 10.4214 38.636 10.6614 38.836C10.9014 39.028 11.2174 39.124 11.6094 39.124C11.9934 39.124 12.2734 39.044 12.4494 38.884C12.6254 38.724 12.7134 38.54 12.7134 38.332C12.7134 38.028 12.5894 37.824 12.3414 37.72C12.1014 37.608 11.7654 37.508 11.3334 37.42C10.9974 37.348 10.6614 37.252 10.3254 37.132C9.99741 37.012 9.72141 36.844 9.49741 36.628C9.28141 36.404 9.17341 36.104 9.17341 35.728C9.17341 35.208 9.37341 34.776 9.77341 34.432C10.1734 34.08 10.7334 33.904 11.4534 33.904C12.1174 33.904 12.6534 34.064 13.0614 34.384C13.4774 34.704 13.7214 35.156 13.7934 35.74H12.5694C12.5294 35.484 12.4094 35.284 12.2094 35.14C12.0174 34.996 11.7574 34.924 11.4294 34.924C11.1094 34.924 10.8614 34.992 10.6854 35.128C10.5094 35.256 10.4214 35.424 10.4214 35.632C10.4214 35.84 10.5414 36.004 10.7814 36.124C11.0294 36.244 11.3534 36.352 11.7534 36.448C12.1534 36.536 12.5214 36.64 12.8574 36.76C13.2014 36.872 13.4774 37.04 13.6854 37.264C13.8934 37.488 13.9974 37.816 13.9974 38.248C14.0054 38.792 13.7934 39.244 13.3614 39.604C12.9374 39.964 12.3574 40.144 11.6214 40.144ZM16.106 32.92C15.866 32.92 15.666 32.848 15.506 32.704C15.354 32.552 15.278 32.364 15.278 32.14C15.278 31.916 15.354 31.732 15.506 31.588C15.666 31.436 15.866 31.36 16.106 31.36C16.346 31.36 16.542 31.436 16.694 31.588C16.854 31.732 16.934 31.916 16.934 32.14C16.934 32.364 16.854 32.552 16.694 32.704C16.542 32.848 16.346 32.92 16.106 32.92ZM15.47 40V34.048H16.742V40H15.47ZM20.8572 38.176C20.5452 38.176 20.2572 38.14 19.9932 38.068L19.4772 38.572C19.5652 38.628 19.6732 38.676 19.8012 38.716C19.9292 38.756 20.1092 38.792 20.3412 38.824C20.5732 38.856 20.8892 38.888 21.2892 38.92C22.0812 38.992 22.6532 39.184 23.0052 39.496C23.3572 39.8 23.5332 40.208 23.5332 40.72C23.5332 41.072 23.4372 41.404 23.2452 41.716C23.0612 42.036 22.7692 42.292 22.3692 42.484C21.9772 42.684 21.4732 42.784 20.8572 42.784C20.0252 42.784 19.3492 42.624 18.8292 42.304C18.3172 41.992 18.0612 41.516 18.0612 40.876C18.0612 40.628 18.1252 40.38 18.2532 40.132C18.3892 39.892 18.6012 39.664 18.8892 39.448C18.7212 39.376 18.5732 39.3 18.4452 39.22C18.3252 39.132 18.2172 39.044 18.1212 38.956V38.668L19.1532 37.612C18.6892 37.212 18.4572 36.688 18.4572 36.04C18.4572 35.648 18.5492 35.292 18.7332 34.972C18.9252 34.644 19.2012 34.384 19.5612 34.192C19.9212 34 20.3532 33.904 20.8572 33.904C21.1932 33.904 21.5052 33.952 21.7932 34.048H24.0132V34.888L22.9572 34.948C23.1492 35.276 23.2452 35.64 23.2452 36.04C23.2452 36.44 23.1492 36.8 22.9572 37.12C22.7732 37.44 22.5012 37.696 22.1412 37.888C21.7892 38.08 21.3612 38.176 20.8572 38.176ZM20.8572 37.18C21.2252 37.18 21.5212 37.084 21.7452 36.892C21.9772 36.692 22.0932 36.412 22.0932 36.052C22.0932 35.684 21.9772 35.404 21.7452 35.212C21.5212 35.02 21.2252 34.924 20.8572 34.924C20.4812 34.924 20.1772 35.02 19.9452 35.212C19.7212 35.404 19.6092 35.684 19.6092 36.052C19.6092 36.412 19.7212 36.692 19.9452 36.892C20.1772 37.084 20.4812 37.18 20.8572 37.18ZM19.2612 40.756C19.2612 41.1 19.4132 41.356 19.7172 41.524C20.0212 41.7 20.4012 41.788 20.8572 41.788C21.2972 41.788 21.6532 41.692 21.9252 41.5C22.1972 41.316 22.3332 41.068 22.3332 40.756C22.3332 40.524 22.2412 40.324 22.0572 40.156C21.8732 39.996 21.5252 39.896 21.0132 39.856C20.6292 39.832 20.2892 39.796 19.9932 39.748C19.7132 39.9 19.5212 40.064 19.4172 40.24C19.3132 40.416 19.2612 40.588 19.2612 40.756ZM25.1478 40V34.048H26.2758L26.3718 35.092C26.5558 34.724 26.8238 34.436 27.1758 34.228C27.5358 34.012 27.9478 33.904 28.4118 33.904C29.1318 33.904 29.6958 34.128 30.1038 34.576C30.5198 35.024 30.7278 35.692 30.7278 36.58V40H29.4678V36.712C29.4678 35.56 28.9958 34.984 28.0518 34.984C27.5798 34.984 27.1878 35.152 26.8758 35.488C26.5718 35.824 26.4198 36.304 26.4198 36.928V40H25.1478ZM38.0333 40.144C37.4653 40.144 36.9533 40.016 36.4973 39.76C36.0493 39.496 35.6933 39.132 35.4293 38.668C35.1653 38.196 35.0333 37.648 35.0333 37.024C35.0333 36.4 35.1653 35.856 35.4293 35.392C35.7013 34.92 36.0653 34.556 36.5213 34.3C36.9773 34.036 37.4853 33.904 38.0453 33.904C38.6133 33.904 39.1213 34.036 39.5693 34.3C40.0253 34.556 40.3853 34.92 40.6493 35.392C40.9213 35.856 41.0573 36.4 41.0573 37.024C41.0573 37.648 40.9213 38.196 40.6493 38.668C40.3853 39.132 40.0253 39.496 39.5693 39.76C39.1133 40.016 38.6013 40.144 38.0333 40.144ZM38.0333 39.052C38.3373 39.052 38.6173 38.976 38.8733 38.824C39.1373 38.672 39.3493 38.448 39.5093 38.152C39.6693 37.848 39.7493 37.472 39.7493 37.024C39.7493 36.576 39.6693 36.204 39.5093 35.908C39.3573 35.604 39.1493 35.376 38.8853 35.224C38.6293 35.072 38.3493 34.996 38.0453 34.996C37.7413 34.996 37.4573 35.072 37.1933 35.224C36.9373 35.376 36.7293 35.604 36.5693 35.908C36.4093 36.204 36.3293 36.576 36.3293 37.024C36.3293 37.472 36.4093 37.848 36.5693 38.152C36.7293 38.448 36.9373 38.672 37.1933 38.824C37.4493 38.976 37.7293 39.052 38.0333 39.052ZM44.6289 40.144C43.9089 40.144 43.3409 39.92 42.9249 39.472C42.5169 39.024 42.3129 38.356 42.3129 37.468V34.048H43.5849V37.336C43.5849 38.488 44.0569 39.064 45.0009 39.064C45.4729 39.064 45.8609 38.896 46.1649 38.56C46.4689 38.224 46.6209 37.744 46.6209 37.12V34.048H47.8929V40H46.7649L46.6689 38.956C46.4849 39.324 46.2129 39.616 45.8529 39.832C45.5009 40.04 45.0929 40.144 44.6289 40.144ZM52.007 40C51.423 40 50.959 39.86 50.615 39.58C50.271 39.292 50.099 38.784 50.099 38.056V35.116H49.079V34.048H50.099L50.255 32.536H51.371V34.048H53.051V35.116H51.371V38.056C51.371 38.384 51.439 38.612 51.575 38.74C51.719 38.86 51.963 38.92 52.307 38.92H52.991V40H52.007Z" fill="#49260C"/>
</svg>
